<svg width="24" height="26" viewBox="0 0 24 26" fill="none" xmlns="http://www.w3.org/2000/svg">
<g filter="url(#filter0_dd_0_42)">
<path d="M12.7742 2C12.4891 2 12.2581 2.21952 12.2581 2.49032C12.2581 2.76112 12.4891 2.98065 12.7742 2.98065C16.1948 2.98065 18.9677 5.61494 18.9677 8.86452C18.9677 9.13531 19.1988 9.35484 19.4839 9.35484C19.7689 9.35484 20 9.13531 20 8.86452C20 5.07335 16.7649 2 12.7742 2Z" fill="#E4E5EA"/>
<path d="M6.1673 3.59966C6.45986 3.4568 6.97514 3.3844 7.27048 3.64579C7.63965 3.97253 8.20861 4.54529 8.59951 5.04502C8.9904 5.54475 9.53764 6.30588 9.61582 6.47502C9.694 6.64416 9.78086 7.24384 9.38997 7.60518C9.07726 7.89425 8.669 8.15104 8.50395 8.2433C8.35049 8.37143 8.09916 8.74764 8.32154 9.22738C8.59951 9.82706 9.19887 11.0033 10.2326 11.8798C11.2662 12.7562 12.3607 13.2175 13.047 13.3636C13.0906 13.3636 13.1467 13.3735 13.2116 13.385C13.4441 13.426 13.7906 13.4872 14.0894 13.1868C14.3951 12.8793 14.6742 12.5564 14.7756 12.4333C14.9348 12.2693 15.3975 11.9905 15.9743 12.1873C16.6953 12.4333 17.5205 12.9715 17.894 13.2252C18.1928 13.4282 18.8582 13.9095 19.1536 14.1247C19.3331 14.2554 19.6331 14.6445 19.3968 15.1549C19.1014 15.7931 17.8419 17.2 16.7127 17.2C16.2957 17.2 12.2652 16.116 8.70374 13.0561C6.42881 11.1015 4.47054 7.71025 4.13466 6.56728C4.00726 6.29563 3.8567 5.62625 4.27365 5.12191C4.6906 4.61756 5.15968 4.09169 6.1673 3.59966Z" fill="#E4E5EA"/>
<path d="M12.7742 5.92258C12.4891 5.92258 12.2581 6.14211 12.2581 6.4129C12.2581 6.6837 12.4891 6.90323 12.7742 6.90323C13.9144 6.90323 14.8387 7.78133 14.8387 8.86452C14.8387 9.13531 15.0698 9.35484 15.3548 9.35484C15.6399 9.35484 15.871 9.13531 15.871 8.86452C15.871 7.23973 14.4845 5.92258 12.7742 5.92258Z" fill="#E4E5EA"/>
<path d="M12.2581 4.45161C12.2581 4.18082 12.4891 3.96129 12.7742 3.96129C15.6247 3.96129 17.9355 6.15654 17.9355 8.86452C17.9355 9.13531 17.7044 9.35484 17.4194 9.35484C17.1343 9.35484 16.9032 9.13531 16.9032 8.86452C16.9032 6.69813 15.0546 4.94194 12.7742 4.94194C12.4891 4.94194 12.2581 4.72241 12.2581 4.45161Z" fill="#E4E5EA"/>
</g>
<defs>
<filter id="filter0_dd_0_42" x="-2" y="0" width="28" height="27" filterUnits="userSpaceOnUse" color-interpolation-filters="sRGB">
<feFlood flood-opacity="0" result="BackgroundImageFix"/>
<feColorMatrix in="SourceAlpha" type="matrix" values="0 0 0 0 0 0 0 0 0 0 0 0 0 0 0 0 0 0 127 0" result="hardAlpha"/>
<feOffset dy="4"/>
<feGaussianBlur stdDeviation="2"/>
<feComposite in2="hardAlpha" operator="out"/>
<feColorMatrix type="matrix" values="0 0 0 0 0 0 0 0 0 0 0 0 0 0 0 0 0 0 0.25 0"/>
<feBlend mode="normal" in2="BackgroundImageFix" result="effect1_dropShadow_0_42"/>
<feColorMatrix in="SourceAlpha" type="matrix" values="0 0 0 0 0 0 0 0 0 0 0 0 0 0 0 0 0 0 127 0" result="hardAlpha"/>
<feOffset dy="4"/>
<feGaussianBlur stdDeviation="2"/>
<feComposite in2="hardAlpha" operator="out"/>
<feColorMatrix type="matrix" values="0 0 0 0 0 0 0 0 0 0 0 0 0 0 0 0 0 0 0.25 0"/>
<feBlend mode="normal" in2="effect1_dropShadow_0_42" result="effect2_dropShadow_0_42"/>
<feBlend mode="normal" in="SourceGraphic" in2="effect2_dropShadow_0_42" result="shape"/>
</filter>
</defs>
</svg>
